<svg width="800" height="800" viewBox="0 0 800 800" fill="none" xmlns="http://www.w3.org/2000/svg">
<path d="M316 461H318" stroke="black"/>
<circle cx="400" cy="399" r="325" fill="white"/>
<path d="M389.47 192.015C391.433 212.372 397.517 256.519 406.152 270.26C434.283 245.132 470.918 177.702 392.414 109L389.47 192.015Z" fill="#008909"/>
<path d="M392.414 109C355.125 139.216 302.92 214.916 392.414 275.985C386.854 256.583 378.48 212.626 389.47 192.015L392.414 109Z" fill="#006D07"/>
<path d="M506.245 319.878C507.88 320.832 504.675 329.038 478.768 354.229H565.122C567.739 353.911 574.543 354.42 580.823 359C593.907 346.277 620.86 300.603 624 219.687L506.245 319.878Z" fill="#008909"/>
<path d="M380.639 354.229H456.199C469.61 343.415 498.394 321.405 506.245 319.878L624 219.687C456.002 188.389 391.76 296.341 380.639 354.229Z" fill="#006D07"/>
<mask id="path-4-inside-1_10_2" fill="white">
<path d="M551 630.5C551 656.181 529.062 677 502 677C474.938 677 453 656.181 453 630.5C453 604.819 474.938 584 502 584C529.062 584 551 604.819 551 630.5ZM481.669 630.5C481.669 641.156 490.771 649.794 502 649.794C513.229 649.794 522.331 641.156 522.331 630.5C522.331 619.844 513.229 611.206 502 611.206C490.771 611.206 481.669 619.844 481.669 630.5Z"/>
</mask>
<path d="M551 630.5C551 656.181 529.062 677 502 677C474.938 677 453 656.181 453 630.5C453 604.819 474.938 584 502 584C529.062 584 551 604.819 551 630.5ZM481.669 630.5C481.669 641.156 490.771 649.794 502 649.794C513.229 649.794 522.331 641.156 522.331 630.5C522.331 619.844 513.229 611.206 502 611.206C490.771 611.206 481.669 619.844 481.669 630.5Z" fill="black" stroke="black" stroke-width="2" mask="url(#path-4-inside-1_10_2)"/>
<path d="M194.919 320.227H141.852C122.198 307.239 133.663 296.351 141.852 292.531C155.61 290.621 188.236 287.947 208.677 292.531C229.117 297.115 237.503 312.905 239.141 320.227L246.02 354.608H333.481H469.096C499.232 353.335 562.257 351.552 573.263 354.608C584.27 357.664 583.746 364.159 582.108 367.024L573.263 410H539.851L550.661 382.304H469.096V410H436.666V382.304H363.945V410H333.481V382.304H253.881L260.76 410H228.331C222.107 383.896 209.463 330.732 208.677 326.912C207.89 323.092 199.177 320.864 194.919 320.227Z" fill="black" stroke="black"/>
<path d="M529.345 553.252H297.227C294.866 553.252 298.211 568.39 300.178 575.959C302.538 581.257 309.685 583.843 312.964 584.474H506.724V610.965H453.612H346.405C297.62 616.264 278.212 599.927 274.605 591.097L251 505H283.457L287.391 524.869H341.487V505H370.993V524.869H430.99V505H459.513V524.869H515.576L519.51 505H550C547.377 514.461 541.738 535.276 540.164 542.845C538.591 550.414 532.296 552.937 529.345 553.252Z" fill="black" stroke="black"/>
<mask id="path-7-inside-2_10_2" fill="white">
<path d="M348 632.5C348 658.181 325.614 679 298 679C270.386 679 248 658.181 248 632.5C248 606.819 270.386 586 298 586C325.614 586 348 606.819 348 632.5ZM276.7 632.5C276.7 643.44 286.236 652.309 298 652.309C309.764 652.309 319.3 643.44 319.3 632.5C319.3 621.56 309.764 612.691 298 612.691C286.236 612.691 276.7 621.56 276.7 632.5Z"/>
</mask>
<path d="M348 632.5C348 658.181 325.614 679 298 679C270.386 679 248 658.181 248 632.5C248 606.819 270.386 586 298 586C325.614 586 348 606.819 348 632.5ZM276.7 632.5C276.7 643.44 286.236 652.309 298 652.309C309.764 652.309 319.3 643.44 319.3 632.5C319.3 621.56 309.764 612.691 298 612.691C286.236 612.691 276.7 621.56 276.7 632.5Z" fill="black" stroke="black" stroke-width="2" mask="url(#path-7-inside-2_10_2)"/>
<path d="M141.914 493.34C137.894 493.34 135.044 492.2 133.364 489.92C131.744 487.58 130.934 484.07 130.934 479.39C130.934 476.39 131.414 471.89 132.374 465.89C133.394 459.83 134.804 451.82 136.604 441.86L131.834 432.23C134.654 430.43 137.654 428.9 140.834 427.64C144.014 426.32 147.194 425.66 150.374 425.66C152.414 425.66 153.914 426.14 154.874 427.1C155.894 428.06 156.584 429.26 156.944 430.7C159.044 430.64 161.504 430.4 164.324 429.98C167.144 429.56 170.114 429.02 173.234 428.36C176.354 427.7 179.384 426.95 182.324 426.11C182.624 427.25 182.804 428.3 182.864 429.26C182.984 430.22 183.044 431.12 183.044 431.96C183.044 435.38 182.264 438.17 180.704 440.33C179.144 442.49 177.044 444.08 174.404 445.1C171.824 446.12 168.974 446.63 165.854 446.63C162.494 446.63 159.134 445.91 155.774 444.47C155.414 446.51 155.024 448.67 154.604 450.95C154.184 453.17 153.734 455.42 153.254 457.7C154.214 457.88 155.144 458.03 156.044 458.15C157.004 458.27 157.964 458.33 158.924 458.33C160.124 458.09 161.474 457.79 162.974 457.43C164.534 457.01 165.884 456.62 167.024 456.26C167.264 457.04 167.384 457.85 167.384 458.69C167.444 459.47 167.474 460.1 167.474 460.58C167.474 463.46 166.484 465.56 164.504 466.88C162.584 468.2 160.304 468.86 157.664 468.86C156.524 468.86 155.444 468.8 154.424 468.68C153.404 468.5 152.384 468.29 151.364 468.05C151.064 469.85 150.824 471.56 150.644 473.18C150.464 474.8 150.374 476.66 150.374 478.76H164.954C169.514 478.1 174.104 476.93 178.724 475.25C178.964 475.91 179.114 476.6 179.174 477.32C179.234 478.04 179.264 478.82 179.264 479.66C179.264 481.76 178.844 483.86 178.004 485.96C177.164 488.06 175.874 489.8 174.134 491.18C172.394 492.56 170.204 493.25 167.564 493.25C166.184 493.25 164.774 493.13 163.334 492.89C161.894 492.65 160.394 492.38 158.834 492.08C157.694 491.84 156.464 491.6 155.144 491.36C153.884 491.12 152.474 490.91 150.914 490.73C148.034 492.47 145.034 493.34 141.914 493.34ZM210.777 493.25C205.557 493.25 201.027 492.26 197.187 490.28C193.407 488.24 190.467 485.45 188.367 481.91C186.327 478.37 185.307 474.26 185.307 469.58C185.307 464.72 186.177 460.31 187.917 456.35C189.657 452.33 192.117 448.88 195.297 446C198.477 443.12 202.167 440.9 206.367 439.34C210.627 437.78 215.217 437 220.137 437C225.477 437 229.587 438.02 232.467 440.06C235.407 442.04 236.877 444.53 236.877 447.53C236.877 450.41 235.827 452.6 233.727 454.1C231.687 455.6 229.347 456.35 226.707 456.35C224.907 456.35 223.017 455.75 221.037 454.55C219.057 453.35 217.467 451.49 216.267 448.97C213.627 450.05 211.377 451.73 209.517 454.01C207.717 456.23 206.337 458.72 205.377 461.48C204.477 464.18 204.027 466.85 204.027 469.49C204.027 473.03 204.777 476.09 206.277 478.67C207.777 481.19 209.997 482.45 212.937 482.45C214.977 482.45 216.837 481.67 218.517 480.11C220.197 478.49 221.037 475.94 221.037 472.46C225.117 472.46 228.327 472.91 230.667 473.81C233.007 474.71 234.177 476.33 234.177 478.67C234.177 480.83 233.217 483.05 231.297 485.33C229.377 487.55 226.677 489.44 223.197 491C219.717 492.5 215.577 493.25 210.777 493.25ZM268.169 493.25C262.889 493.25 258.329 492.26 254.489 490.28C250.709 488.24 247.799 485.45 245.759 481.91C243.719 478.37 242.699 474.26 242.699 469.58C242.699 463.1 244.109 457.43 246.929 452.57C249.809 447.65 253.739 443.84 258.719 441.14C263.699 438.38 269.369 437 275.729 437C276.749 437 277.769 437.06 278.789 437.18C279.869 437.24 281.009 437.42 282.209 437.72C282.509 438.56 282.749 439.58 282.929 440.78C283.109 441.92 283.229 443.15 283.289 444.47C283.829 444.29 284.399 444.14 284.999 444.02C285.659 443.9 286.349 443.84 287.069 443.84C289.169 443.84 291.149 444.41 293.009 445.55C294.869 446.63 296.399 448.34 297.599 450.68C298.799 453.02 299.399 455.99 299.399 459.59C299.399 464.93 298.499 469.7 296.699 473.9C294.959 478.04 292.589 481.55 289.589 484.43C286.589 487.31 283.229 489.5 279.509 491C275.849 492.5 272.069 493.25 268.169 493.25ZM270.959 482.18C272.339 482.18 273.779 481.85 275.279 481.19C276.779 480.53 278.249 479.33 279.689 477.59C281.129 475.85 282.329 473.39 283.289 470.21C280.709 468.59 278.849 466.61 277.709 464.27C276.569 461.87 275.999 459.23 275.999 456.35C275.999 455.51 276.149 454.43 276.449 453.11C276.749 451.79 277.259 450.44 277.979 449.06C278.759 447.68 279.809 446.54 281.129 445.64C276.989 446.48 273.599 447.74 270.959 449.42C268.319 451.1 266.249 453.05 264.749 455.27C263.309 457.43 262.289 459.68 261.689 462.02C261.149 464.3 260.879 466.49 260.879 468.59C260.879 470.99 261.269 473.24 262.049 475.34C262.829 477.38 263.969 479.03 265.469 480.29C266.969 481.55 268.799 482.18 270.959 482.18ZM319.365 493.34C315.345 493.34 312.495 492.2 310.815 489.92C309.195 487.58 308.385 484.07 308.385 479.39C308.385 476.39 308.865 471.89 309.825 465.89C310.845 459.83 312.255 451.82 314.055 441.86L309.285 432.23C312.105 430.43 315.105 428.9 318.285 427.64C321.465 426.32 324.645 425.66 327.825 425.66C330.705 425.66 333.225 426.11 335.385 427.01C337.605 427.85 339.525 429.5 341.145 431.96C342.765 434.36 344.115 437.9 345.195 442.58C346.335 447.2 347.265 453.29 347.985 460.85H349.065C350.505 456.71 352.305 452.57 354.465 448.43C356.625 444.29 359.205 440.51 362.205 437.09C365.205 433.67 368.685 430.94 372.645 428.9C376.665 426.8 381.225 425.75 386.325 425.75C389.145 425.75 391.005 426.59 391.905 428.27C392.805 429.89 393.255 431.84 393.255 434.12C393.255 435.08 393.075 436.64 392.715 438.8C392.415 440.9 391.995 443.36 391.455 446.18C390.915 448.94 390.345 451.85 389.745 454.91C389.205 457.91 388.665 460.85 388.125 463.73C387.585 466.55 387.135 469.07 386.775 471.29C386.475 473.45 386.325 475.1 386.325 476.24C386.325 479.3 386.535 481.88 386.955 483.98C387.435 486.08 388.125 487.85 389.025 489.29C385.425 491.99 381.705 493.34 377.865 493.34C373.845 493.34 370.995 492.2 369.315 489.92C367.695 487.58 366.885 484.07 366.885 479.39C366.885 476.81 367.245 473.12 367.965 468.32C368.745 463.52 369.795 457.34 371.115 449.78H369.675C367.095 453.2 364.845 457.04 362.925 461.3C361.005 465.5 359.475 469.7 358.335 473.9C357.255 478.04 356.535 481.73 356.175 484.97C354.675 486.35 353.025 487.4 351.225 488.12C349.485 488.78 347.745 489.11 346.005 489.11C344.565 489.11 343.215 488.57 341.955 487.49C340.695 486.35 339.525 484.37 338.445 481.55C337.365 478.73 336.405 474.77 335.565 469.67C334.785 464.51 334.155 457.88 333.675 449.78H332.235C331.455 453.2 330.735 456.71 330.075 460.31C329.415 463.85 328.875 467.06 328.455 469.94C328.035 472.82 327.825 474.92 327.825 476.24C327.825 479.3 328.035 481.88 328.455 483.98C328.935 486.08 329.625 487.85 330.525 489.29C326.925 491.99 323.205 493.34 319.365 493.34ZM416.667 493.25C413.307 493.25 410.337 492.38 407.757 490.64C405.237 488.9 403.287 486.44 401.907 483.26C400.527 480.08 399.837 476.36 399.837 472.1C399.837 467.12 400.707 462.5 402.447 458.24C404.247 453.98 406.707 450.26 409.827 447.08C413.007 443.9 416.727 441.44 420.987 439.7C425.247 437.9 429.867 437 434.847 437C436.287 437 437.517 437.06 438.537 437.18C439.617 437.24 440.757 437.42 441.957 437.72C442.317 439.4 442.527 440.87 442.587 442.13C443.967 441.23 445.497 440.54 447.177 440.06C448.857 439.52 450.417 439.25 451.857 439.25C456.237 439.25 458.427 441.62 458.427 446.36C458.427 447.92 458.127 450.05 457.527 452.75C456.987 455.39 456.327 458.33 455.547 461.57C454.827 464.75 454.167 468.02 453.567 471.38C453.027 474.68 452.757 477.77 452.757 480.65C452.757 484.55 453.687 487.28 455.547 488.84C452.187 491.78 448.617 493.25 444.837 493.25C441.357 493.25 438.777 492.17 437.097 490.01C435.477 487.85 434.667 484.49 434.667 479.93L433.767 479.48C432.147 483.8 429.807 487.19 426.747 489.65C423.747 492.05 420.387 493.25 416.667 493.25ZM423.777 476.87C426.117 476.87 428.397 476.03 430.617 474.35C432.837 472.67 434.697 470.36 436.197 467.42C436.437 465.08 436.677 462.89 436.917 460.85C437.217 458.75 437.577 456.53 437.997 454.19C438.477 451.85 439.047 449.09 439.707 445.91C436.647 445.91 433.737 446.51 430.977 447.71C428.277 448.85 425.847 450.44 423.687 452.48C421.527 454.52 419.817 456.86 418.557 459.5C417.357 462.08 416.757 464.81 416.757 467.69C416.757 470.63 417.357 472.91 418.557 474.53C419.817 476.09 421.557 476.87 423.777 476.87ZM477.627 493.25C473.967 493.25 471.357 492.29 469.797 490.37C468.237 488.45 467.457 485.69 467.457 482.09C467.457 480.83 467.637 478.91 467.997 476.33C468.357 473.69 468.807 470.78 469.347 467.6C469.947 464.36 470.577 461.12 471.237 457.88C471.897 454.64 472.527 451.76 473.127 449.24L468.447 442.04C471.567 440.66 474.447 439.49 477.087 438.53C479.787 437.51 482.187 437 484.287 437C485.847 437 486.987 437.54 487.707 438.62C488.427 439.7 488.787 441.08 488.787 442.76C488.787 444.68 488.457 446.84 487.797 449.24C487.137 451.58 486.477 453.8 485.817 455.9L486.717 456.35C488.817 450.17 491.187 445.4 493.827 442.04C496.527 438.68 499.527 437 502.827 437C504.987 437 506.727 437.48 508.047 438.44C509.367 439.34 510.327 440.48 510.927 441.86C511.587 443.18 511.917 444.47 511.917 445.73C511.917 447.71 511.407 449.63 510.387 451.49C509.427 453.29 507.867 454.79 505.707 455.99C503.547 457.13 500.697 457.7 497.157 457.7C495.777 457.7 494.427 458 493.107 458.6C491.787 459.2 490.587 460.34 489.507 462.02C488.427 463.64 487.557 465.95 486.897 468.95C486.297 471.95 485.997 475.85 485.997 480.65C485.997 484.37 486.627 487.1 487.887 488.84C484.167 491.78 480.747 493.25 477.627 493.25ZM526.164 493.25C522.504 493.25 519.894 492.11 518.334 489.83C516.774 487.55 515.994 484.07 515.994 479.39C515.994 478.07 516.144 476.12 516.444 473.54C516.804 470.96 517.254 468.02 517.794 464.72C518.334 461.42 518.934 458 519.594 454.46C520.254 450.86 520.884 447.38 521.484 444.02C522.084 440.66 522.624 437.66 523.104 435.02L518.064 427.82C521.244 425.96 524.274 424.4 527.154 423.14C530.034 421.88 532.914 421.25 535.794 421.25C538.314 421.25 540.054 421.76 541.014 422.78C542.034 423.74 542.544 425.36 542.544 427.64C542.544 429.62 542.304 432.05 541.824 434.93C541.344 437.81 540.744 440.99 540.024 444.47C539.304 447.89 538.554 451.43 537.774 455.09C536.994 458.69 536.334 462.2 535.794 465.62L541.464 460.58C543.624 458.66 545.604 456.89 547.404 455.27C549.264 453.65 550.734 452.03 551.814 450.41C552.954 448.73 553.524 446.93 553.524 445.01C553.524 444.17 553.464 443.42 553.344 442.76C553.224 442.1 553.044 441.47 552.804 440.87C557.064 438.29 561.084 437 564.864 437C567.384 437 569.394 437.81 570.894 439.43C572.394 440.99 573.144 443.06 573.144 445.64C573.144 448.1 572.424 450.44 570.984 452.66C569.604 454.88 567.804 456.89 565.584 458.69C563.424 460.43 561.204 461.96 558.924 463.28C560.244 467.48 561.774 471.47 563.514 475.25C565.314 479.03 567.114 482.21 568.914 484.79C570.714 487.31 572.244 488.9 573.504 489.56C572.304 490.82 570.624 491.75 568.464 492.35C566.304 492.95 564.264 493.25 562.344 493.25C558.624 493.25 555.504 491.99 552.984 489.47C550.464 486.95 548.184 482.81 546.144 477.05L543.894 470.66L534.624 475.25C534.564 475.73 534.534 476.24 534.534 476.78C534.534 477.26 534.534 477.74 534.534 478.22C534.534 480.56 534.744 482.66 535.164 484.52C535.644 486.32 536.364 487.76 537.324 488.84C533.124 491.78 529.404 493.25 526.164 493.25ZM603.303 493.25C597.723 493.25 593.013 492.26 589.173 490.28C585.333 488.3 582.423 485.54 580.443 482C578.523 478.4 577.563 474.26 577.563 469.58C577.563 464.72 578.433 460.31 580.173 456.35C581.973 452.33 584.463 448.88 587.643 446C590.823 443.12 594.513 440.9 598.713 439.34C602.973 437.78 607.563 437 612.483 437C618.303 437 622.593 438.29 625.353 440.87C628.113 443.45 629.493 446.69 629.493 450.59C629.493 453.95 628.383 457.13 626.163 460.13C624.003 463.07 620.493 465.47 615.633 467.33C610.773 469.13 604.293 470.06 596.193 470.12C596.373 473.96 597.243 476.99 598.803 479.21C600.423 481.37 602.433 482.45 604.833 482.45C606.033 482.45 607.293 482.18 608.613 481.64C609.933 481.04 611.043 480.02 611.943 478.58C612.843 477.08 613.293 475.04 613.293 472.46C617.373 472.46 620.583 472.91 622.923 473.81C625.263 474.71 626.433 476.33 626.433 478.67C626.433 480.83 625.503 483.05 623.643 485.33C621.783 487.55 619.113 489.44 615.633 491C612.213 492.5 608.103 493.25 603.303 493.25ZM597.003 462.92C601.383 462.56 604.893 461.75 607.533 460.49C610.173 459.23 612.093 457.79 613.293 456.17C614.493 454.55 615.093 453.05 615.093 451.67C615.093 450.47 614.733 449.48 614.013 448.7C613.293 447.92 612.273 447.53 610.953 447.53C608.793 447.53 606.783 448.28 604.923 449.78C603.063 451.28 601.443 453.23 600.063 455.63C598.743 457.97 597.723 460.4 597.003 462.92ZM653.093 493.25C649.253 493.25 646.523 492.11 644.903 489.83C643.283 487.55 642.473 484.07 642.473 479.39C642.473 478.07 642.623 476.21 642.923 473.81C643.223 471.35 643.613 468.62 644.093 465.62C644.633 462.62 645.143 459.65 645.623 456.71C644.363 456.95 643.133 457.22 641.933 457.52C640.793 457.82 639.713 458.15 638.693 458.51C638.453 457.61 638.273 456.71 638.153 455.81C638.093 454.91 638.063 454.25 638.063 453.83C638.063 450.71 638.963 448.46 640.763 447.08C642.623 445.64 644.843 444.92 647.423 444.92C647.423 443.54 647.243 442.01 646.883 440.33C646.523 438.65 645.893 436.79 644.993 434.75C647.513 432.89 650.033 431.33 652.553 430.07C655.073 428.81 657.863 428.18 660.923 428.18C663.563 428.18 665.393 428.69 666.413 429.71C667.433 430.67 667.943 432.29 667.943 434.57C667.943 435.71 667.823 437.06 667.583 438.62C667.343 440.18 667.043 441.89 666.683 443.75C668.003 443.57 669.263 443.36 670.463 443.12C671.663 442.82 672.833 442.52 673.973 442.22C674.213 442.88 674.363 443.57 674.423 444.29C674.543 444.95 674.603 445.61 674.603 446.27C674.603 448.67 673.853 450.77 672.353 452.57C670.913 454.31 668.663 455.18 665.603 455.18H664.253C663.413 459.02 662.663 462.95 662.003 466.97C661.343 470.99 661.013 474.74 661.013 478.22C661.013 480.56 661.223 482.66 661.643 484.52C662.123 486.32 662.843 487.76 663.803 488.84C660.443 491.78 656.873 493.25 653.093 493.25Z" fill="black"/>
<path d="M290.638 314.164L183 240C183 271.187 190.242 286.59 193.863 290.393C225.463 293.436 236.654 307.508 238.3 314.164C241.46 314.164 244.883 342.055 246.2 356H341C299.13 328.616 289.979 316.699 290.638 314.164Z" fill="#006D07"/>
<path d="M183 239.289L291.398 314.656C326.874 337.552 356.765 347.092 367.277 349C371.218 332.973 381.401 312.43 386 304.161C340.276 214.103 231.615 223.389 183 239.289Z" fill="#008909"/>
<path d="M725 401C725 580.493 579.493 726 400 726C220.507 726 75 580.493 75 401C75 221.507 220.507 76 400 76C579.493 76 725 221.507 725 401ZM93.2816 401C93.2816 570.396 230.604 707.718 400 707.718C569.396 707.718 706.718 570.396 706.718 401C706.718 231.604 569.396 94.2816 400 94.2816C230.604 94.2816 93.2816 231.604 93.2816 401Z" fill="#006D07"/>
</svg>
