<?xml version="1.0" encoding="UTF-8" standalone="no"?>
<svg
   version="1.1"
   id="Layer_1"
   x="0px"
   y="0px"
   width="100%"
   viewBox="0 0 1024 1024"
   enable-background="new 0 0 1024 1024"
   xml:space="preserve"
   sodipodi:docname="ecomarket-logo.svg"
   inkscape:version="1.4 (86a8ad7, 2024-10-11)"
   xmlns:inkscape="http://www.inkscape.org/namespaces/inkscape"
   xmlns:sodipodi="http://sodipodi.sourceforge.net/DTD/sodipodi-0.dtd"
   xmlns:xlink="http://www.w3.org/1999/xlink"
   xmlns="http://www.w3.org/2000/svg"
   xmlns:svg="http://www.w3.org/2000/svg"><defs
   id="defs19"><linearGradient
     id="linearGradient23"
     inkscape:collect="always"><stop
       style="stop-color:#000000;stop-opacity:1;"
       offset="0.11912226"
       id="stop23" /><stop
       style="stop-color:#006400;stop-opacity:1;"
       offset="0.99059564"
       id="stop24" /></linearGradient><linearGradient
     id="linearGradient20"
     inkscape:collect="always"><stop
       style="stop-color:#006b00;stop-opacity:1;"
       offset="0.45141065"
       id="stop20" /><stop
       style="stop-color:#006400;stop-opacity:0;"
       offset="0.69592476"
       id="stop21" /></linearGradient><linearGradient
     inkscape:collect="always"
     xlink:href="#linearGradient20"
     id="linearGradient21"
     x1="445.25365"
     y1="367.97266"
     x2="580.83455"
     y2="367.97266"
     gradientUnits="userSpaceOnUse" /><linearGradient
     inkscape:collect="always"
     xlink:href="#linearGradient23"
     id="linearGradient24"
     x1="474.67486"
     y1="388.65883"
     x2="547.72691"
     y2="388.65883"
     gradientUnits="userSpaceOnUse" /></defs><sodipodi:namedview
   id="namedview19"
   pagecolor="#ffffff"
   bordercolor="#000000"
   borderopacity="0.25"
   inkscape:showpageshadow="2"
   inkscape:pageopacity="0.0"
   inkscape:pagecheckerboard="0"
   inkscape:deskcolor="#d1d1d1"
   inkscape:zoom="0.38186528"
   inkscape:cx="638.9688"
   inkscape:cy="525.05428"
   inkscape:window-width="1366"
   inkscape:window-height="697"
   inkscape:window-x="290"
   inkscape:window-y="1072"
   inkscape:window-maximized="1"
   inkscape:current-layer="Layer_1" />
<path
   fill="#000000"
   opacity="1"
   stroke="none"
   d="m 592.33319,554.92114 c 4.65137,9.50714 0.48358,16.41046 -9.61273,16.4187 -39.82172,0.0327 -79.64762,0.3324 -119.46317,-0.16748 -15.9671,-0.20044 -25.28369,-5.33117 -30.68554,-21.65381 -10.54511,-31.86389 -21.72315,-63.51867 -32.68793,-95.24316 -6.73465,-19.48547 -13.61267,-38.92148 -20.30676,-58.42075 -1.64142,-4.78134 -4.36005,-6.84082 -9.66349,-6.4512 -17.9599,1.31937 -35.96862,0.70416 -53.95745,0.71244 -6.84049,0.003 -10.42481,-4.01935 -10.29346,-10.70084 0.12289,-6.25119 3.81982,-9.70844 10.69577,-9.73468 18.49429,-0.0706 36.98929,-0.13214 55.483,-0.0259 4.07471,0.0234 8.06784,-1.4303 12.29474,0.44495 7.22958,3.20736 9.88287,9.51001 12.23883,16.16937 3.27274,9.25061 6.65683,18.4704 9.58289,27.83163 1.55877,4.98697 3.93829,7.3067 9.55422,7.064 8.63526,-0.37326 17.31098,0.17633 25.96915,0.35257 3.07907,0.0626 4.90769,-0.88275 5.26056,-4.44434 2.62842,-26.52847 13.58237,-49.42743 30.60776,-69.67468 9.34253,-11.11047 20.06903,-20.76755 30.96622,-30.2782 2.50567,-2.18686 4.61566,-2.78662 7.43036,-0.55737 20.92688,16.57422 39.80621,34.9913 52.125,59.08767 6.31713,12.35669 10.53344,25.47022 11.51129,39.43949 0.29168,4.16726 1.789,6.14313 6.47821,6.06 13.14611,-0.23313 26.31097,-0.24598 39.45001,0.1979 13.22186,0.44666 20.49835,11.9057 13.11066,24.94107 -11.72339,20.68546 -21.91834,42.13523 -32.67231,63.30826 -2.4049,4.7349 -5.04547,9.47128 -8.33917,13.59934 -3.2583,4.0838 -8.26331,5.16626 -13.47351,5.16229 -43.82062,-0.0335 -87.64124,-0.0237 -131.46185,5.5e-4 -1.92377,10e-4 -3.97568,-0.47315 -6.18463,1.09619 1.77072,6.19641 3.33642,12.42218 7.14077,17.80139 2.17487,3.0752 5.36701,3.46143 8.86701,3.45654 39.65503,-0.0553 79.31027,-0.002 118.96518,-0.0845 4.2171,-0.009 7.92816,0.69757 11.07037,4.2926 M 463.38953,417.09946 c 0.0515,3.02432 1.90115,3.9927 4.58639,4.03643 9.32016,0.15177 18.64005,0.31766 27.96033,0.4611 0.85971,0.0132 11.1232,0.67363 11.6611,-0.50545 -0.41803,-1.88123 -1.94718,-10.4026 -3.35197,-11.7255 -4.86688,-4.58329 6.57234,2.385 2.5601,-2.94849 -1.86661,-2.48121 0.31766,1.30813 0.3728,-1.83408 0.0821,-4.67657 -6.68196,-6.8395 -2.07664,-5.62728 4.48691,1.18106 6.62247,3.73949 9.97644,6.76994 2.54496,2.2995 -13.01177,-6.92175 -9.75987,-3.91516 0.15231,-2.60339 11.43201,-5.35235 11.43653,-6.94449 0.0293,-10.32586 -6.47701,4.34631 -6.43421,-5.97944 0.007,-1.65152 -1.31778,9.61357 -0.9391,8.01863 0.81464,-3.43124 -0.63868,-6.61531 2.91717,-6.71367 3.65319,-0.10107 0.073,3.18899 1.24623,6.79318 0.77717,2.38751 0.37916,-3.25858 0.36335,-0.72782 -0.0602,9.65937 -3.83759,-13.65964 -2.31665,-4.1206 0.47193,2.95986 4.98875,11.18373 7.49456,11.51363 4.60901,-3.83704 -1.53025,4.21164 3.49148,0.95849 3.05634,-1.97995 -10.35339,-2.65164 -7.02264,-0.0784 3.26142,2.51956 9.37987,-2.87771 8.81218,0.49705 -0.22558,1.34103 0.69354,2.86782 -0.29981,3.94812 -4.1673,4.53198 -5.6842,2.46595 -9.86645,6.98453 -1.41364,1.52735 -3.16729,1.99786 -3.60906,5.21719 10.7674,0 38.92884,-0.17046 49.49733,-0.27626 2.50494,-0.025 2.68225,-2.12527 2.56372,-4.04288 -0.45288,-7.32464 -1.7298,-14.56143 -4.28925,-21.39416 -8.90765,-23.77945 -26.04193,-41.46179 -43.98712,-58.50546 -1.99725,-1.89691 -3.44418,-1.28296 -5.01907,0.43545 -10.21671,11.14789 -21.28876,21.56992 -29.40903,34.499 -8.56931,13.64416 -15.39606,27.95169 -16.55914,45.20645 m -41.97306,40.16549 c 0.61005,4.59372 3.35395,5.72647 7.7092,5.48993 6.47791,-0.3519 12.98892,-0.0877 19.48587,-0.0962 11.36127,-0.0148 11.36127,-0.0182 12.08924,-11.272 0.32525,-5.02826 2.86624,-8.31171 6.6853,-8.6388 4.3363,-0.37137 8.00738,2.68518 8.91571,7.7276 0.49948,2.77286 0.71136,5.61621 0.81256,8.4364 0.0853,2.37714 0.78378,3.7855 3.45404,3.75538 6.99573,-0.0789 13.99255,-0.0601 20.98895,-0.0784 2.84085,-0.007 4.30884,-1.24222 4.17179,-4.26883 -0.12043,-2.65824 -0.25208,-5.36393 0.1,-7.98435 0.52326,-3.89386 2.33664,-7.02505 6.72702,-7.52862 3.80072,-0.43595 7.78198,2.65387 8.65259,6.78714 0.54578,2.59088 1.07849,5.28958 0.92444,7.89902 -0.25537,4.32772 1.6535,5.40783 5.61444,5.24063 6.15295,-0.25971 12.33142,-0.25358 18.48608,-0.0187 4.21143,0.16073 5.79163,-1.194 4.97803,-5.53607 -0.38348,-2.04672 0.22302,-4.28943 0.44409,-6.43686 0.5091,-4.94498 3.19764,-7.91217 7.22296,-8.03144 3.94715,-0.11697 7.73755,3.31168 8.31189,7.8548 0.3114,2.46304 0.3014,5.00186 0.12043,7.48349 -0.25275,3.46674 1.11163,4.71018 4.59893,4.66376 11.15937,-0.14862 22.32209,-0.044 33.48346,-0.0528 1.65534,-0.001 3.55603,0.23832 4.48798,-1.50457 3.55621,-6.65073 6.99506,-13.36426 10.56677,-20.22535 -12.37024,-1.62426 -201.15249,-0.62423 -204.49545,1.18027 1.72836,4.76425 3.47766,9.58624 5.46368,15.15457 m 103.61692,52.37958 c 6.99072,0.004 13.98394,-0.10156 20.97113,0.0584 3.62365,0.0829 5.17041,-1.324 5.07739,-4.97232 -0.1781,-6.98727 -0.25659,-13.98004 -0.19873,-20.96906 0.0256,-3.08398 -0.92877,-4.59057 -4.28455,-4.51886 -6.98736,0.14936 -13.9812,0.0945 -20.97064,-0.004 -2.83533,-0.04 -4.34552,0.80848 -4.29535,3.96021 0.11914,7.4881 0.0363,14.97934 0.0447,22.46933 0.002,1.95349 0.29217,3.72806 3.65607,3.97653 m -48.31693,-19.39435 c 0.10883,4.98755 0.30826,9.97534 0.29294,14.96253 -0.009,3.06622 1.02423,4.58233 4.35434,4.50332 6.64972,-0.1578 13.30759,-0.15057 19.95819,-0.0178 3.24771,0.0649 4.43643,-1.2594 4.37851,-4.44464 -0.13001,-7.15005 -0.18353,-14.30771 0.008,-21.45483 0.0957,-3.55994 -1.38443,-4.71613 -4.72628,-4.60205 -4.81882,0.16449 -9.6464,0.0526 -14.46936,0.12075 -11.73594,0.16584 -9.77085,-1.47537 -9.79682,10.93268 m -33.20941,-11.09649 c -4.52463,0.4533 -9.20117,-0.95127 -14.03299,0.93103 2.38119,9.46566 6.10053,18.17999 9.12232,27.11709 0.59844,1.76993 2.0718,2.46817 3.94381,2.45633 4.83185,-0.0305 9.66431,-0.0314 14.49603,0.0102 2.50086,0.0215 3.64972,-1.13348 3.63678,-3.63452 -0.0388,-7.49795 -0.0535,-14.99627 -0.0219,-22.4942 0.0135,-3.19259 -1.57156,-4.47629 -4.6535,-4.41388 -3.83081,0.0776 -7.66434,0.0196 -12.49057,0.028 m 139.16739,30.45492 c 1.99475,-0.11834 2.74621,-1.6138 3.50079,-3.1304 3.70099,-7.43921 7.43817,-14.8606 11.09546,-22.32117 0.62097,-1.26681 1.69373,-2.56765 0.3454,-4.80066 -9.04712,0 -18.46484,-0.0581 -27.88092,0.0422 -2.26209,0.0241 -2.36328,1.97147 -2.36682,3.68622 -0.0159,7.64752 0.0515,15.29577 -0.0374,22.94232 -0.0339,2.91806 1.41138,3.73084 4.02674,3.65573 3.4884,-0.10019 6.98181,-0.0279 11.31671,-0.0743 z"
   id="path1"
   sodipodi:nodetypes="csssssssssssssssssssssssssssscsssccsscssssscssssscscssssscsscsssccsssssssssssssssssssssssccccsssssssccssssssscccsssssscccscsssscc" />
<path
   fill="#000000"
   opacity="1.000000"
   stroke="none"
   d=" M463.382599,314.486572   C443.300110,321.551208 425.754028,332.151978 410.141266,345.998352   C405.859161,349.795929 399.470795,350.390320 396.548615,347.217438   C393.311096,343.702148 394.066528,338.088776 398.541260,333.918213   C423.141235,310.990448 452.278168,296.833435 485.335236,291.984161   C522.478882,286.535431 558.243713,292.115051 591.629211,310.071899   C626.897461,329.041382 652.323242,357.114258 668.725586,393.553253   C676.405945,410.615753 682.004517,428.254395 684.580444,446.828918   C688.385803,474.267975 684.649841,500.702454 674.971313,526.577698   C667.540710,546.443176 656.824036,564.398865 643.478210,580.588318   C636.123047,589.510681 628.264832,598.486023 617.885010,604.392761   C612.996155,607.174805 609.512878,606.640747 606.809448,603.124878   C604.184570,599.711182 604.734009,595.113037 608.478149,591.410156   C612.738098,587.197083 617.218506,583.207703 621.514771,579.030212   C646.458862,554.775879 661.989197,525.241882 667.290466,491.121918   C673.540161,450.897583 663.937744,413.699005 641.845276,379.532532   C630.114319,361.390320 615.763489,345.903351 597.875305,333.837952   C576.579102,319.473877 553.208984,310.455170 527.606140,307.335754   C505.745300,304.672272 484.532898,307.401489 463.382599,314.486572  z"
   id="path2" />
<path
   fill="#000000"
   opacity="1.000000"
   stroke="none"
   d=" M409.223328,605.125488   C401.167786,601.437378 395.160339,595.517029 389.518311,589.591370   C372.743011,571.972595 359.566895,551.842163 350.822449,529.052551   C342.231964,506.664124 336.920654,483.622925 338.705811,459.400146   C338.900177,456.762909 339.287140,454.108521 339.911621,451.541626   C340.845795,447.701965 344.449219,445.609802 348.328522,446.371887   C353.258331,447.340302 356.524353,451.368896 356.079468,456.475403   C352.473694,497.862396 366.806091,533.518372 391.343292,565.734375   C396.860321,572.977966 403.622253,579.294434 410.619263,585.238464   C413.027039,587.283936 415.470367,589.337830 417.574280,591.678345   C420.326813,594.740540 421.484711,598.341125 419.127014,602.197388   C416.878845,605.874512 413.516602,606.555725 409.223328,605.125488  z"
   id="path3" />
<path
   fill="#000000"
   opacity="1.000000"
   stroke="none"
   d=" M409.510803,739.380127   C401.141205,750.110168 389.931366,753.272034 377.714020,750.813599   C365.648682,748.385803 357.874695,739.906555 355.364197,727.895325   C350.933716,706.698120 368.400940,686.739380 391.450836,691.235413   C411.885193,695.221191 422.905029,720.098511 409.510803,739.380127  M369.770233,718.292603   C368.260681,728.118835 377.607300,740.555847 391.411041,734.744141   C400.039398,731.111450 403.243134,720.977783 398.201630,713.109802   C394.971527,708.068909 390.117096,705.106934 384.402649,705.653137   C377.373779,706.325012 371.897125,710.066833 369.770233,718.292603  z"
   id="path4" />
<path
   fill="#000000"
   opacity="1.000000"
   stroke="none"
   d=" M494.997375,738.677917   C494.331207,732.064331 495.801392,725.963318 495.600525,719.553894   C493.230286,719.851501 492.671997,721.669373 491.796692,723.134827   C489.236847,727.420715 486.668060,731.701294 484.128937,735.999451   C481.353790,740.697083 476.334167,740.939331 473.068756,736.496582   C469.368225,731.461975 466.789337,725.624268 461.859344,720.527466   C461.038879,725.268799 461.180756,729.349854 461.713867,733.403137   C462.173981,736.901184 462.209686,740.386658 461.813019,743.861450   C461.351959,747.900452 458.985809,750.416443 454.881226,750.156738   C451.072296,749.915710 449.688965,747.089844 449.659149,743.484741   C449.538086,728.841980 449.324036,714.199463 449.303070,699.556641   C449.298401,696.284485 450.331146,693.075134 453.907776,691.996765   C457.457184,690.926514 460.498383,692.142090 462.563873,695.299255   C467.029419,702.124939 471.180573,709.128723 474.676819,716.515991   C475.573334,718.410339 475.951416,720.666931 478.103912,722.220276   C480.483063,720.424988 481.018768,717.507812 482.387482,715.147705   C485.810364,709.245850 489.161285,703.301941 492.622803,697.422974   C493.720337,695.558960 495.095245,693.873535 497.043640,692.762512   C501.787201,690.057373 506.735748,692.422302 507.312439,697.825195   C508.997406,713.611877 507.657196,729.407471 507.254883,745.196228   C507.179230,748.165405 505.615509,750.227234 502.290375,750.314453   C498.902832,750.403381 496.387939,749.199890 495.748169,745.585693   C495.371979,743.460632 495.256073,741.289612 494.997375,738.677917  z"
   id="path5" />
<path
   fill="#000000"
   opacity="1.000000"
   stroke="none"
   d=" M533.366455,607.847656   C537.502869,589.111084 554.257385,582.751099 568.898254,586.669739   C579.726440,589.567932 588.298645,600.992432 588.341492,612.799011   C588.384094,624.545959 580.075134,634.691589 569.254761,638.601807   C554.722046,643.853577 541.417419,636.043091 536.249268,626.486572   C533.135437,620.728821 531.912659,614.713013 533.366455,607.847656  M559.830933,603.500183   C558.889221,603.806030 557.893677,604.002930 557.015076,604.436646   C553.283752,606.278687 550.832947,609.206604 551.524780,613.474731   C552.167236,617.437866 554.640320,620.619324 558.707153,621.467834   C563.004395,622.364380 566.450806,620.515320 568.578308,616.540649   C571.654663,610.793213 568.042297,604.882507 559.830933,603.500183  z"
   id="path6" />
<path
   fill="#000000"
   opacity="1.000000"
   stroke="none"
   d=" M457.874756,586.377441   C476.431610,582.743591 491.706879,593.620972 493.021942,611.973633   C493.728668,621.836548 489.142670,630.491760 480.618896,635.560913   C470.291504,641.702637 459.210144,642.934326 448.826416,635.090515   C440.296783,628.647339 436.587006,619.654724 438.045929,609.268311   C439.641357,597.910278 445.685699,589.565063 457.874756,586.377441  M466.168610,621.611084   C473.488068,619.109375 476.559021,613.797791 473.622223,608.719238   C471.229950,604.582397 466.780396,602.602051 462.695282,603.856079   C458.396393,605.175720 455.929993,608.867554 456.339478,613.369812   C456.744446,617.822449 460.055725,620.844299 466.168610,621.611084  z"
   id="path7" />
<path
   fill="#000000"
   opacity="1.000000"
   stroke="none"
   d=" M571.455444,694.946899   C572.843689,693.064636 574.210510,691.759033 576.205444,691.786682   C583.010742,691.880676 589.808838,691.218323 596.624817,692.306335   C606.213989,693.837158 611.302002,699.849670 612.957703,708.766113   C614.455750,716.833557 611.667725,723.525635 603.896179,727.906799   C605.026611,733.153137 608.921631,736.839294 611.139160,741.375366   C612.294800,743.739380 613.741211,746.371277 610.994446,748.612061   C608.444519,750.692322 605.548462,750.966614 602.605713,749.329346   C600.505005,748.160522 599.075684,746.308044 597.811584,744.332642   C596.105957,741.667480 594.259399,739.066650 592.832275,736.255981   C591.160767,732.964233 588.396790,732.984863 585.572754,733.558472   C582.511047,734.180237 583.525024,736.909058 583.374634,738.919922   C583.250671,740.577393 583.295044,742.252502 583.347473,743.917175   C583.479248,748.104492 581.196472,750.110474 577.292847,750.247253   C573.302673,750.387085 570.948547,748.117615 570.763916,744.231567   C570.511230,738.910583 570.570068,733.566589 570.697754,728.237366   C570.960754,717.263489 570.003906,706.270874 571.455444,694.946899  M598.881104,712.534241   C597.662598,706.558044 594.608704,704.743835 587.097412,705.345825   C581.083191,705.827820 584.109497,710.427490 583.431519,713.304138   C583.173401,714.399353 583.379272,715.606567 583.394348,716.762512   C583.407776,717.790222 583.664185,718.684204 584.624451,719.286499   C589.222778,722.170959 597.307983,718.789062 598.881104,712.534241  z"
   id="path8" />
<path
   fill="#000000"
   opacity="1.000000"
   stroke="none"
   d=" M301.850098,704.050415   C312.725616,686.541687 335.460358,688.294128 345.235870,697.234619   C350.901001,702.415833 350.119110,706.560303 343.132385,709.625244   C340.760071,710.666016 339.019806,709.857483 337.084076,708.740662   C332.436157,706.059021 327.509674,704.951416 322.296844,706.858643   C314.300720,709.784302 310.397705,717.300720 312.630066,725.249573   C314.751160,732.802185 323.045135,737.338440 331.359558,735.368347   C333.111786,734.953125 334.831024,734.207825 336.425568,733.353455   C341.224976,730.781982 344.421478,731.586853 347.254883,736.250366   C349.427521,739.826294 348.476746,742.983765 344.323517,745.984741   C334.244171,753.267700 319.988007,753.314087 309.728516,746.097473   C299.157410,738.661621 294.513733,725.758850 298.072388,713.646606   C299.009674,710.456482 299.947510,707.260315 301.850098,704.050415  z"
   id="path9" />
<path
   fill="#000000"
   opacity="1.000000"
   stroke="none"
   d=" M252.248657,747.549194   C250.697159,745.498413 250.689865,743.513000 250.637711,741.492859   C250.289825,728.015869 251.251038,714.527466 249.953430,701.048950   C249.379639,695.089111 252.919968,691.758301 258.948029,691.713623   C267.110565,691.653137 275.274414,691.638245 283.436646,691.713501   C287.884674,691.754517 291.029358,694.447266 291.045074,697.956970   C291.061127,701.530884 288.017487,704.201843 283.507111,704.304688   C278.511932,704.418640 273.499939,704.552307 268.518188,704.271301   C264.084198,704.021118 263.311249,706.154053 263.264801,710.005310   C263.218262,713.863159 264.726257,714.948486 268.294373,714.791138   C272.280548,714.615417 276.290619,714.754761 280.280487,714.953674   C284.307098,715.154419 287.191620,717.302917 287.097137,721.407043   C286.999451,725.651611 283.800171,727.220642 279.822632,727.252319   C275.991180,727.282837 272.152710,727.463562 268.330261,727.291443   C264.763733,727.130798 263.269470,728.323303 263.250977,732.130493   C263.231415,736.160278 265.194153,736.850647 268.531342,736.762329   C273.358612,736.634583 278.192657,736.736023 283.023499,736.776428   C288.016937,736.818176 292.074493,740.229309 291.964630,744.244934   C291.865082,747.881653 288.391113,750.313965 283.170959,750.328003   C275.008057,750.349976 266.844788,750.296448 258.682190,750.352112   C256.241028,750.368774 254.016190,750.099304 252.248657,747.549194  z"
   id="path10" />
<path
   fill="#000000"
   opacity="1.000000"
   stroke="none"
   d=" M718.248169,746.982483   C716.413513,749.924316 713.918701,750.374939 711.104187,750.350952   C703.280334,750.284180 695.455383,750.367310 687.631287,750.314758   C682.219788,750.278381 678.969971,747.716980 678.867920,742.281616   C678.596069,727.804810 678.643677,713.317261 678.863037,698.838562   C678.932434,694.256592 682.065552,691.753906 686.774719,691.709473   C694.764893,691.633911 702.756775,691.630737 710.746887,691.706970   C715.875549,691.755920 718.348694,694.000549 718.293823,698.264832   C718.241333,702.350952 715.951721,704.271851 710.944092,704.322449   C706.283142,704.369507 701.616272,704.479309 696.961731,704.304810   C692.923645,704.153381 691.300110,705.735962 691.297852,709.868530   C691.295715,713.902771 693.026978,715.170044 696.754517,714.966919   C700.741089,714.749817 704.742859,714.829468 708.735901,714.708679   C712.928040,714.581970 715.702820,716.702026 715.982361,720.662537   C716.240784,724.325134 713.404236,726.386353 709.936951,726.704651   C705.141724,727.145081 700.304810,727.290771 695.486938,727.270874   C692.063965,727.256714 691.293213,728.951050 691.302979,731.952454   C691.312378,734.856506 691.848816,736.824890 695.341675,736.773499   C700.833374,736.692627 706.336304,736.608704 711.818604,736.865173   C717.906616,737.149902 720.143188,740.635315 718.248169,746.982483  z"
   id="path11" />
<path
   fill="#000000"
   opacity="1.000000"
   stroke="none"
   d=" M638.780945,729.626526   C635.615662,731.260925 635.247559,734.028564 635.234009,736.930725   C635.223877,739.095276 635.334229,741.261353 635.290344,743.424683   C635.214417,747.174072 633.817444,749.989441 629.632385,750.260376   C625.797302,750.508606 622.919678,747.667664 622.770569,743.340759   C622.587036,738.017273 622.672852,732.684021 622.667847,727.354980   C622.659424,718.361938 622.670471,709.368958 622.674866,700.375916   C622.676208,697.662170 623.009338,695.002502 625.055115,693.005554   C626.800903,691.301514 629.067810,691.313538 631.150146,692.105652   C633.934387,693.164856 635.155334,695.606323 635.259949,698.416443   C635.420288,702.721558 635.302063,707.036987 635.302063,712.003784   C638.783752,710.762573 640.461060,708.217407 642.471008,706.209534   C645.882019,702.801941 649.105347,699.206970 652.435730,695.717651   C654.302551,693.761719 656.393494,692.073669 659.190308,691.770264   C661.898926,691.476379 664.543823,691.523682 666.215088,694.321289   C667.809265,696.989868 665.846985,698.528320 664.615601,700.497986   C660.773376,706.643982 654.830444,710.850891 650.288940,716.350220   C648.400330,718.637268 648.517822,720.383057 650.353882,722.417603   C655.036316,727.606262 659.728943,732.786743 664.340454,738.038086   C669.158936,743.525085 669.743896,746.559387 666.661621,749.128113   C663.597717,751.681519 658.244690,750.473816 654.274475,746.206787   C649.178650,740.730042 644.159424,735.181824 638.780945,729.626526  z"
   id="path12" />
<path
   fill="#000000"
   opacity="1.000000"
   stroke="none"
   d=" M526.113770,710.171143   C528.263306,705.245117 530.257263,700.666504 532.243591,696.084656   C533.395752,693.427002 535.208557,691.811584 538.287964,691.662170   C541.435242,691.509460 543.273560,693.051697 544.493896,695.715881   C551.428406,710.854980 557.696472,726.272888 563.652588,741.816711   C564.759705,744.706055 565.282959,747.782471 561.567383,749.490173   C557.848633,751.199280 554.795715,750.076599 552.224731,747.147400   C552.009888,746.902649 551.910400,746.560669 551.725830,746.284851   C549.812866,743.426270 549.510498,738.562012 546.182373,737.821106   C541.256897,736.724487 535.922852,737.430847 530.762878,737.437134   C528.990356,737.439331 528.258728,738.830566 527.538696,740.188782   C526.292786,742.539001 525.159302,744.970154 523.691284,747.176208   C521.691040,750.181946 518.812195,751.229736 515.452393,749.579163   C512.099426,747.931946 510.999298,745.189270 512.508179,741.670715   C516.966003,731.275757 521.469360,720.900269 526.113770,710.171143  M541.562195,721.627930   C540.308350,719.637451 540.169312,717.015991 538.077576,714.958008   C536.586731,718.190308 535.455994,721.011230 534.935059,724.070923   C540.932007,725.303040 540.932007,725.303040 541.562195,721.627930  z"
   id="path13" />
<path
   fill="#000000"
   opacity="1.000000"
   stroke="none"
   d=" M739.835266,704.840088   C736.441772,705.197266 733.439148,705.000305 730.520630,704.260559   C727.296204,703.443237 725.012939,701.346191 725.331909,697.896790   C725.646057,694.499146 727.603210,691.802917 731.400024,691.760986   C742.396484,691.639648 753.396973,691.614014 764.392273,691.783142   C768.627380,691.848328 770.934143,695.001709 770.816162,698.698608   C770.709961,702.025330 768.079834,704.111389 764.333069,704.357117   C754.330627,705.013123 754.333130,705.073975 754.333862,715.205811   C754.334534,724.537903 754.243652,733.871399 754.387390,743.201294   C754.446594,747.048279 753.447449,749.815247 749.213257,750.281677   C745.401672,750.701599 742.282410,748.088257 742.069885,743.668335   C741.726135,736.517273 741.846191,729.343445 741.794128,722.179077   C741.762634,717.846802 741.848572,713.512146 741.729919,709.182800   C741.688049,707.654480 742.377869,705.712830 739.835266,704.840088  z"
   id="path14" />
<path
   fill="#000000"
   opacity="1.000000"
   stroke="none"
   d=" M618.789368,644.268921   C614.159912,644.261292 609.998901,644.335205 605.842834,644.224487   C601.254211,644.102295 596.975403,639.976685 596.957581,635.836914   C596.938843,631.471924 600.907227,627.815613 605.952759,627.714111   C610.442627,627.623840 614.935791,627.671997 619.427246,627.699585   C625.394714,627.736328 628.843384,630.797974 628.979980,636.127625   C629.102051,640.890015 625.173584,644.180481 618.789368,644.268921  z"
   id="path15" />
<path
   fill="#000000"
   opacity="1.000000"
   stroke="none"
   d=" M399.658875,642.600098   C396.409943,639.401733 395.807556,635.935364 397.387207,632.250854   C399.069000,628.328125 402.427582,627.424988 406.440399,627.641235   C410.417480,627.855530 414.415100,627.665527 418.403290,627.701599   C423.797882,627.750366 428.273254,631.554626 428.276886,636.043701   C428.280853,640.973450 424.430847,644.513550 418.545929,644.214478   C412.348846,643.899536 405.964508,645.872437 399.658875,642.600098  z"
   id="path16" />
<path
   fill="#000000"
   opacity="1.000000"
   stroke="none"
   d=" M357.535004,638.185303   C356.260223,633.013123 358.531433,629.723450 362.489838,627.669189   C366.218170,625.734253 370.012482,626.243958 372.883575,629.522705   C375.938171,633.010864 376.057434,636.936951 373.999054,641.076965   C372.220001,644.655212 368.949768,644.265442 365.845184,644.485413   C361.445496,644.797058 359.257019,642.090942 357.535004,638.185303  z"
   id="path17" />
<path
   fill="#000000"
   opacity="1.000000"
   stroke="none"
   d=" M348.783875,425.418518   C345.161560,421.725769 343.922485,417.615295 346.162323,413.356934   C347.898621,410.055878 351.379486,408.743958 355.111023,409.168304   C359.120331,409.624237 361.723755,411.998383 362.905823,415.902679   C364.079407,419.778839 362.596039,423.156738 359.735443,425.205444   C356.639526,427.422699 352.760162,428.415253 348.783875,425.418518  z"
   id="path18" />
<path
   fill="#000000"
   opacity="1.000000"
   stroke="none"
   d=" M666.831665,638.423584   C663.791565,644.125183 661.334167,645.296509 655.335938,644.158142   C651.365051,643.404480 650.083008,640.384277 649.600891,636.924011   C648.966553,632.371582 651.402344,628.814331 655.803467,627.507751   C660.222961,626.195679 663.988098,627.914062 666.045837,632.201843   C666.933472,634.051392 667.186340,636.009705 666.831665,638.423584  z"
   id="path19" />
<path
   style="fill:url(#linearGradient21);fill-opacity:1;stroke:#00ff00;stroke-opacity:0"
   d="m 464.54973,420.57143 h -18.74865 c 0,0 1.92231,-21.18231 7.17541,-32.40506 5.8978,-12.60007 10.58235,-23.68678 18.74865,-33.56239 22.10921,-26.73694 37.69218,-40.89925 41.20072,-39.34901 9.33255,4.12356 35.49066,26.43051 47.45027,47.21881 9.1199,15.85229 13.02915,22.46845 15.04521,30.55335 3.50945,14.07377 4.86076,27.77576 4.86076,27.77576 l -17.82279,-0.23146 c 0.54309,1.15407 -0.14647,-14.25537 -4.86076,-26.84991 C 552.82096,380.95787 546.558,371.92165 534.68354,358.07595 524.2697,345.93333 517.07026,338.40145 512,336.31827 c -3.97753,0.92586 -23.84087,24.07233 -23.84087,24.07233 0,0 -9.18067,11.44288 -15.50813,24.53526 -10.60466,21.94251 -8.10127,35.64557 -8.10127,35.64557 z"
   id="path20"
   sodipodi:nodetypes="ccsssssccssccsc" /><path
   style="fill:url(#linearGradient24);fill-opacity:1;stroke:#00ff00;stroke-opacity:0"
   d="m 526.14863,422.21318 -31.09735,-0.16367 0.98202,-1.96405 -18.82208,-21.44081 c 0,0 -4.9144,-4.01928 0.49101,-9.65654 4.45514,-4.64624 9.3292,0.32734 9.3292,0.32734 l 16.69437,13.58463 0.32734,-39.93555 c 0,0 -0.44556,-7.55896 7.85618,-7.85617 7.1811,-0.25709 7.36516,7.85617 7.36516,7.85617 v 40.42656 c -0.0619,0.22715 8.89519,-8.86157 17.34905,-14.89399 2.25617,-1.60993 5.18068,-1.90732 8.18352,1.47303 4.13736,4.6575 2.04764,6.33161 0.49101,8.8382 -3.44844,5.55292 -17.84007,19.64043 -17.84007,19.64043 z"
   id="path21"
   sodipodi:nodetypes="ccccscccsccssscc" /></svg>
